<svg width="31" height="31" viewBox="0 0 31 31" fill="none" xmlns="http://www.w3.org/2000/svg">
<g id="vuesax/bulk/drop">
<g id="drop">
<path id="Vector" d="M21.1775 9.65178L8.32751 22.5018C7.72751 23.1018 6.70251 22.9643 6.34001 22.2018C5.69001 20.8643 5.31501 19.3518 5.31501 17.7643C5.29001 10.8643 12.29 4.96428 14.665 3.15178C15.1275 2.80178 15.7525 2.80178 16.2025 3.15178C17.29 3.97678 19.3275 5.68928 21.24 7.93928C21.665 8.43928 21.64 9.18928 21.1775 9.65178Z" fill="#446127"/>
<path id="Vector_2" opacity="0.4" d="M25.5649 17.7768C25.5649 23.3518 21.0274 27.8893 15.4399 27.8893C13.2024 27.8893 11.1149 27.1643 9.4274 25.9143C8.8149 25.4643 8.7649 24.5643 9.3024 24.0268L21.8899 11.4393C22.4774 10.8518 23.4649 10.9768 23.8649 11.7018C24.8899 13.5893 25.5774 15.6393 25.5649 17.7768Z" fill="#446127"/>
</g>
</g>
</svg>
