<svg width="41" height="40" viewBox="0 0 41 40" fill="none" xmlns="http://www.w3.org/2000/svg">
<g id="flash-circle">
<g id="vuesax/bulk/flash-circle">
<g id="flash-circle_2">
<path id="Vector" opacity="0.4" d="M20.3312 36.6667C29.536 36.6667 36.9979 29.2048 36.9979 20C36.9979 10.7953 29.536 3.33334 20.3312 3.33334C11.1265 3.33334 3.66455 10.7953 3.66455 20C3.66455 29.2048 11.1265 36.6667 20.3312 36.6667Z" fill="white"/>
<path id="Vector_2" d="M25.7979 18.8333H22.9645V12.2333C22.9645 10.7 22.1312 10.3833 21.1145 11.5333L20.3812 12.3667L14.1812 19.4167C13.3312 20.3833 13.6812 21.1667 14.9645 21.1667H17.7979V27.7667C17.7979 29.3 18.6312 29.6167 19.6479 28.4667L20.3812 27.6333L26.5812 20.5833C27.4312 19.6167 27.0812 18.8333 25.7979 18.8333Z" fill="white"/>
</g>
</g>
</g>
</svg>
