<svg width="25" height="28" viewBox="0 0 25 28" fill="none" xmlns="http://www.w3.org/2000/svg">
<g id="leaf">
<g id="Group 63">
<path id="Vector" opacity="0.4" d="M13.1916 1.41124C12.7416 1.06124 12.1166 1.06124 11.6666 1.41124C9.29161 3.22374 2.27906 9.13624 2.31656 16.0237C2.31656 21.5987 6.8541 26.1487 12.4416 26.1487C18.0291 26.1487 22.5666 21.6112 22.5666 16.0362C22.5791 9.24874 15.5541 3.23624 13.1916 1.41124Z" fill="#446127"/>
<path id="Vector_2" d="M22.5417 16.3986C22.5167 17.1611 22.4042 17.9111 22.2042 18.6361L13.3667 22.9361L13.3667 26.1111C13.0542 26.1361 12.7417 26.1486 12.4292 26.1486C12.1167 26.1486 11.8042 26.1361 11.4917 26.1111L11.4917 1.53612C11.5542 1.48612 11.6042 1.44862 11.6542 1.41112C12.1167 1.06112 12.7417 1.06112 13.1917 1.41112C13.2417 1.44862 13.3042 1.49862 13.3667 1.54862L13.3667 8.34862L18.0917 6.04862C18.5042 6.52362 18.8917 7.01112 19.2792 7.52362C19.2292 7.57362 19.1792 7.61112 19.1167 7.63612L13.3667 10.4361L13.3667 14.5986L21.2292 10.7736C21.2417 10.7736 21.2417 10.7611 21.2542 10.7611C21.5292 11.3236 21.7667 11.8986 21.9542 12.4986L13.3667 16.6861L13.3667 20.8486L21.6417 16.8236L22.5417 16.3986Z" fill="#446127"/>
</g>
</g>
</svg>
