<svg width="37" height="37" viewBox="0 0 37 37" fill="none" xmlns="http://www.w3.org/2000/svg">
<g id="nuts">
<g id="nuts_2">
<path id="Vector" d="M20.0844 21.8949C20.2912 22.2169 20.5318 22.5168 20.8021 22.7899C21.6754 23.5957 22.1926 24.7035 22.2434 25.8772C22.2602 26.7831 22.0324 27.6773 21.5832 28.4695C21.1339 29.2616 20.479 29.9237 19.6847 30.3889C18.8862 30.8268 17.9819 31.0461 17.0669 31.0238C16.1519 31.0014 15.26 30.7382 14.4848 30.2619C13.4809 29.6256 12.7425 28.6591 12.4028 27.5367L12.041 26.4405C10.224 21.429 11.4979 23.5889 7.97254 19.5427L7.22472 18.7577C6.68515 18.2242 6.27782 17.5766 6.03404 16.8649C5.79026 16.1531 5.71653 15.3961 5.81854 14.6521C5.92055 13.9081 6.19559 13.1969 6.62246 12.5732C7.04934 11.9495 7.61669 11.4301 8.28086 11.0547C8.94503 10.6794 9.68833 10.4582 10.4535 10.4081C11.2188 10.3581 11.9855 10.4805 12.6948 10.7661C13.404 11.0516 14.0369 11.4926 14.5448 12.0551C15.0526 12.6177 15.4218 13.2868 15.624 14.0109C15.7167 14.3529 15.8481 14.6837 16.0159 14.9971C17.7508 19.8694 16.6823 18.0578 20.0844 21.8949Z" fill="#446127" fill-opacity="0.5" stroke="#446127" stroke-width="2" stroke-linecap="round" stroke-linejoin="round"/>
<path id="Vector_2" d="M24.3692 20.3094C25.0884 19.2264 25.5658 18.0069 25.77 16.7308C26.6095 13.0049 25.2995 9.65764 23.0239 9.17858C20.7483 8.69952 19.2072 10.5923 18.1594 13.3212" stroke="#446127" stroke-width="2" stroke-linecap="round" stroke-linejoin="round"/>
<path id="Vector_3" d="M23.6374 9.57503L20.9701 17.1209" stroke="#446127" stroke-width="2" stroke-linecap="round" stroke-linejoin="round"/>
</g>
</g>
</svg>
