<svg width="27" height="27" viewBox="0 0 27 27" fill="none" xmlns="http://www.w3.org/2000/svg">
<g id="vuesax/bulk/paintbucket">
<g id="paintbucket">
<path id="Vector" opacity="0.4" d="M21.2254 8.32389L17.3297 4.51056C13.8324 1.09806 11.9952 2.35472 9.78173 4.51056L3.51757 10.6422C2.24481 11.8881 1.54756 12.6897 1.29301 13.5781C1.29301 13.5889 1.28195 13.5889 1.28195 13.5889C1.28195 13.5997 1.28195 13.5997 1.28195 13.5997C1.28195 13.6106 1.28195 13.6106 1.28195 13.6106V13.6431C0.828182 15.2247 2.02346 16.5681 3.51757 18.0306L7.42437 21.8331C8.81886 23.2089 9.94774 24.0647 11.1984 24.0647C12.449 24.0647 13.5225 23.2414 14.9613 21.8331L21.2254 15.7122C21.7677 15.1706 22.1662 14.7264 22.4761 14.3039C22.4761 14.2931 22.4761 14.2931 22.4761 14.2931C22.4761 14.2931 22.4761 14.2931 22.4871 14.2931C23.9038 12.3539 23.5275 10.5664 21.2254 8.32389ZM21.2697 10.9781C21.7456 11.7689 20.993 12.7439 20.0744 12.5489C19.7313 12.4731 19.3993 12.4081 19.0562 12.3431C19.0341 12.3431 19.012 12.3322 18.9788 12.3322C18.204 12.1914 17.4183 12.0722 16.6214 11.9747H16.5771C15.7803 11.8772 14.9724 11.8014 14.1644 11.7581H14.0759C13.3676 11.7147 12.6482 11.6931 11.9399 11.6931C11.0766 11.6931 10.2134 11.7364 9.36117 11.7906C9.21729 11.8014 9.08448 11.8122 8.95167 11.8231C8.30976 11.8664 7.66785 11.9314 7.03701 12.0072C6.85993 12.0289 6.69392 12.0506 6.52791 12.0722C5.88599 12.1697 5.25515 12.2672 4.62431 12.3864C4.48043 12.4189 4.34762 12.4406 4.20375 12.4622C4.14841 12.4731 4.08201 12.4839 4.02667 12.4947C4.22588 12.2781 4.4583 12.0506 4.71285 11.8014L10.9659 5.68056C12.9802 3.73056 13.6664 3.26472 16.1455 5.68056L20.0302 9.49389C20.6278 10.0681 21.0262 10.5556 21.2697 10.9781Z" fill="#446127"/>
<path id="Vector_2" d="M21.2697 10.9781C21.7456 11.769 20.993 12.744 20.0744 12.549C19.7313 12.4731 19.3993 12.4081 19.0562 12.3431C19.034 12.3431 19.0119 12.3323 18.9787 12.3323C18.204 12.1915 17.4182 12.0723 16.6213 11.9748H16.5771C15.7802 11.8773 14.9723 11.8015 14.1644 11.7581H14.0758C13.3675 11.7148 12.6481 11.6931 11.9398 11.6931C11.0766 11.6931 10.2133 11.7365 9.36111 11.7906C9.21723 11.8015 9.08442 11.8123 8.95162 11.8231C8.30971 11.8665 7.66779 11.9315 7.03695 12.0073C6.85987 12.029 6.69386 12.0506 6.52785 12.0723C5.88594 12.1698 5.2551 12.2673 4.62425 12.3865C4.48038 12.419 4.34757 12.4406 4.20369 12.4623C4.14835 12.4731 4.08195 12.484 4.02661 12.4948C4.22582 12.2781 4.45824 12.0506 4.71279 11.8015L10.9659 5.68064C12.9802 3.73064 13.6663 3.26481 16.1454 5.68064L20.0301 9.49397C20.6277 10.0681 21.0262 10.5556 21.2697 10.9781Z" fill="#446127"/>
<path id="Vector_3" d="M23.2618 18.5074C22.8413 17.9983 22.4761 17.5649 21.6571 17.5649C20.8381 17.5649 20.4729 17.9983 20.0634 18.5074C19.178 19.5799 18.7795 20.7499 18.9234 21.8766C19.0894 23.1658 20.2183 24.0649 21.6571 24.0649C23.0958 24.0649 24.2247 23.1658 24.3907 21.8658C24.5346 20.7391 24.1472 19.5799 23.2618 18.5074Z" fill="#446127"/>
</g>
</g>
</svg>
