<svg width="25" height="31" viewBox="0 0 25 31" fill="none" xmlns="http://www.w3.org/2000/svg">
<g id="Group 62">
<path id="Vector" opacity="0.4" d="M14.0728 26.4705L22.5471 9.70765C23.5519 7.72005 22.7586 5.3045 20.771 4.29969L15.9816 1.87847C13.994 0.873667 11.5784 1.667 10.5736 3.6546L2.09936 20.4175C1.09456 22.4051 1.88789 24.8206 3.87549 25.8254L8.66488 28.2466C10.6525 29.2514 13.068 28.4581 14.0728 26.4705Z" fill="#446127"/>
<path id="Vector_2" d="M10.4224 3.95416L16.4091 6.98069C16.9 7.22886 17.1013 7.84176 16.8531 8.33268C16.605 8.82359 15.9921 9.02488 15.5011 8.77671L9.5144 5.75018L10.4224 3.95416Z" fill="#446127"/>
<path id="Vector_3" d="M3.15869 18.3222L7.70861 20.6223C8.19952 20.8705 8.40082 21.4834 8.15264 21.9743C7.90447 22.4652 7.29157 22.6665 6.80065 22.4184L2.25073 20.1182L3.15869 18.3222Z" fill="#446127"/>
<path id="Vector_4" d="M5.60404 13.4849L11.5785 16.5653C12.0695 16.8135 12.2588 17.4203 12.0106 17.9113C12.0106 17.9113 12.0106 17.9113 12.0045 17.9232C11.7564 18.4141 11.1495 18.6035 10.6466 18.3492L4.69609 15.2809L5.60404 13.4849Z" fill="#446127"/>
<path id="Vector_5" d="M8.00098 8.74332L11.1141 10.3171C11.605 10.5653 11.8063 11.1782 11.5581 11.6691C11.3099 12.16 10.697 12.3613 10.2061 12.1131L7.09302 10.5393L8.00098 8.74332Z" fill="#446127"/>
</g>
</svg>
