<svg width="40" height="39" viewBox="0 0 40 39" fill="none" xmlns="http://www.w3.org/2000/svg">
<g id="vuesax/bulk/ruler">
<g id="ruler">
<path id="Vector" opacity="0.4" d="M20.9635 29.4216L29.2325 15.4022C30.2129 13.7399 29.6336 11.6234 27.9353 10.6636L23.8432 8.35102C22.145 7.3913 19.9827 7.95843 19.0022 9.62073L10.7332 23.6401C9.75277 25.3024 10.3322 27.419 12.0304 28.3787L16.1225 30.6913C17.8207 31.6511 19.983 31.0839 20.9635 29.4216Z" fill="#446127"/>
<path id="Vector_2" d="M18.8546 9.87121L23.9697 12.762C24.3892 12.999 24.5362 13.536 24.294 13.9466C24.0518 14.3572 23.5032 14.5011 23.0837 14.264L17.9686 11.3733L18.8546 9.87121Z" fill="#446127"/>
<path id="Vector_3" d="M11.7669 21.8878L15.6544 24.0848C16.0739 24.3218 16.2209 24.8589 15.9787 25.2694C15.7366 25.68 15.1879 25.8239 14.7685 25.5869L10.881 23.3899L11.7669 21.8878Z" fill="#446127"/>
<path id="Vector_4" d="M14.1531 17.8421L19.2548 20.7787C19.6743 21.0158 19.8111 21.547 19.5689 21.9576C19.5689 21.9576 19.5689 21.9576 19.563 21.9676C19.3208 22.3782 18.7781 22.5121 18.3484 22.2692L13.2672 19.3442L14.1531 17.8421Z" fill="#446127"/>
<path id="Vector_5" d="M16.492 13.8768L19.1519 15.38C19.5713 15.6171 19.7184 16.1541 19.4762 16.5647C19.234 16.9752 18.6854 17.1191 18.2659 16.8821L15.6061 15.3789L16.492 13.8768Z" fill="#446127"/>
</g>
</g>
</svg>
