<svg width="31" height="31" viewBox="0 0 31 31" fill="none" xmlns="http://www.w3.org/2000/svg">
<g id="vuesax/bulk/shapes">
<g id="shapes">
<path id="Vector" d="M17.3524 19.1393H6.06487C3.78987 19.1393 2.33987 16.7018 3.43987 14.7018L6.35237 9.40179L9.07737 4.43929C10.2149 2.37679 13.1899 2.37679 14.3274 4.43929L17.0649 9.40179L18.3774 11.7893L19.9774 14.7018C21.0774 16.7018 19.6274 19.1393 17.3524 19.1393Z" fill="#446127"/>
<path id="Vector_2" opacity="0.4" d="M28.0649 19.7643C28.0649 24.2518 24.4274 27.8893 19.9399 27.8893C15.4524 27.8893 11.8149 24.2518 11.8149 19.7643C11.8149 19.5518 11.8274 19.3518 11.8399 19.1393H17.3524C19.6274 19.1393 21.0774 16.7018 19.9774 14.7018L18.3774 11.7893C18.8774 11.6893 19.4024 11.6393 19.9399 11.6393C24.4274 11.6393 28.0649 15.2768 28.0649 19.7643Z" fill="#446127"/>
</g>
</g>
</svg>
