<svg width="28" height="27" viewBox="0 0 28 27" fill="none" xmlns="http://www.w3.org/2000/svg">
<g id="vuesax/bulk/warning-2">
<g id="warning-2">
<g id="Vector" opacity="0.4">
<path d="M23.905 10.1154V17.5254C23.905 18.7387 23.2409 19.8654 22.1674 20.4829L15.5933 24.1988C14.5198 24.8054 13.1917 24.8054 12.1071 24.1988L5.533 20.4829C4.45946 19.8763 3.79541 18.7496 3.79541 17.5254V10.1154C3.79541 8.9021 4.45946 7.77539 5.533 7.15789L12.1071 3.44206C13.1806 2.83539 14.5087 2.83539 15.5933 3.44206L22.1674 7.15789C23.2409 7.77539 23.905 8.89126 23.905 10.1154Z" fill="#446127"/>
<path d="M23.905 10.1154V17.5254C23.905 18.7387 23.2409 19.8654 22.1674 20.4829L15.5933 24.1988C14.5198 24.8054 13.1917 24.8054 12.1071 24.1988L5.533 20.4829C4.45946 19.8763 3.79541 18.7496 3.79541 17.5254V10.1154C3.79541 8.9021 4.45946 7.77539 5.533 7.15789L12.1071 3.44206C13.1806 2.83539 14.5087 2.83539 15.5933 3.44206L22.1674 7.15789C23.2409 7.77539 23.905 8.89126 23.905 10.1154Z" fill="#446127"/>
</g>
<g id="Group">
<path id="Vector_2" d="M13.8557 15.7161C13.4019 15.7161 13.0256 15.3477 13.0256 14.9036V9.21606C13.0256 8.7719 13.4019 8.40356 13.8557 8.40356C14.3095 8.40356 14.6857 8.7719 14.6857 9.21606V14.9036C14.6857 15.3477 14.3095 15.7161 13.8557 15.7161Z" fill="#446127"/>
</g>
<g id="Group_2">
<path id="Vector_3" d="M13.8558 19.5077C13.7119 19.5077 13.568 19.4752 13.4352 19.4211C13.2913 19.3669 13.1806 19.2911 13.07 19.1936C12.9703 19.0853 12.8929 18.9661 12.8265 18.8361C12.7712 18.7061 12.749 18.5652 12.749 18.4244C12.749 18.1427 12.8597 17.861 13.07 17.6552C13.1806 17.5577 13.2913 17.4819 13.4352 17.4278C13.8447 17.2544 14.3317 17.3519 14.6416 17.6552C14.7412 17.7635 14.8186 17.8719 14.874 18.0127C14.9293 18.1427 14.9625 18.2836 14.9625 18.4244C14.9625 18.5652 14.9293 18.7061 14.874 18.8361C14.8186 18.9661 14.7412 19.0853 14.6416 19.1936C14.4313 19.3994 14.1546 19.5077 13.8558 19.5077Z" fill="#446127"/>
</g>
</g>
</g>
</svg>
