<svg width="30" height="26" viewBox="0 0 30 26" fill="none" xmlns="http://www.w3.org/2000/svg">
<g id="watering-can">
<path id="Vector" d="M23.4791 5.89081C22.4572 6.9047 22.1948 8.36304 22.6782 9.61304L18.6458 13.6686V10.7936C18.6458 10.0297 18.0244 9.4047 17.2648 9.4047H15.8425C15.8839 9.16859 15.8839 8.94637 15.8839 8.71026C15.8839 4.48804 12.4867 1.07137 8.28864 1.07137C6.72429 1.06989 5.19768 1.55454 3.91765 2.459C2.63762 3.36347 1.66669 4.64359 1.13766 6.12424C0.608643 7.60489 0.547372 9.21377 0.962232 10.7308C1.37709 12.2478 2.24782 13.5989 3.45531 14.5991V23.2936C3.45531 24.0575 4.07674 24.6825 4.83626 24.6825H17.2648C18.0244 24.6825 18.6458 24.0575 18.6458 23.2936V17.5853L24.6253 11.5714C25.8682 12.0575 27.3182 11.8075 28.3125 10.7936L23.4791 5.89081ZM3.52436 9.4047C3.49674 9.16859 3.45531 8.94637 3.45531 8.71026C3.45531 6.0297 5.62341 3.84915 8.28864 3.84915C10.9539 3.84915 13.122 6.0297 13.122 8.71026C13.122 8.94637 13.0805 9.16859 13.0529 9.4047H3.52436Z" fill="#9BA98C"/>
</g>
</svg>
