<svg width="56" height="55" viewBox="0 0 56 55" fill="none" xmlns="http://www.w3.org/2000/svg">
<path d="M51.2632 42.0077C51.2632 42.8235 51.0765 43.6619 50.6798 44.4776C50.2832 45.2933 49.7698 46.0638 49.0932 46.7889C47.9498 48.0125 46.6898 48.8962 45.2665 49.4627C43.8665 50.0292 42.3498 50.3237 40.7165 50.3237C38.3365 50.3237 35.7932 49.7799 33.1098 48.6696C30.4265 47.5593 27.7432 46.0638 25.0832 44.183C22.3998 42.2796 19.8565 40.1723 17.4298 37.8384C15.0265 35.4818 12.8565 33.0119 10.9198 30.4288C9.0065 27.8456 7.4665 25.2624 6.3465 22.7019C5.2265 20.1187 4.6665 17.6488 4.6665 15.2923C4.6665 13.7514 4.9465 12.2786 5.5065 10.919C6.0665 9.53677 6.95317 8.26784 8.18984 7.13487C9.68317 5.70733 11.3165 5.00488 13.0432 5.00488C13.6965 5.00488 14.3498 5.14084 14.9332 5.41275C15.5398 5.68467 16.0765 6.09254 16.4965 6.68168L21.9098 14.0913C22.3298 14.6578 22.6332 15.179 22.8432 15.6775C23.0532 16.1533 23.1698 16.6292 23.1698 17.0597C23.1698 17.6035 23.0065 18.1473 22.6798 18.6685C22.3765 19.1897 21.9332 19.7335 21.3732 20.2773L19.5998 22.0674C19.3432 22.3167 19.2265 22.6113 19.2265 22.9738C19.2265 23.1551 19.2498 23.3137 19.2965 23.495C19.3665 23.6762 19.4365 23.8122 19.4832 23.9482C19.9032 24.6959 20.6265 25.6703 21.6532 26.8486C22.7032 28.0269 23.8232 29.2278 25.0365 30.4288C26.2965 31.6297 27.5098 32.74 28.7465 33.7597C29.9598 34.7567 30.9632 35.4365 31.7565 35.8444C31.8732 35.8897 32.0132 35.9577 32.1765 36.0256C32.3632 36.0936 32.5498 36.1163 32.7598 36.1163C33.1565 36.1163 33.4598 35.9803 33.7165 35.7311L35.4898 34.0316C36.0732 33.4651 36.6332 33.0346 37.1698 32.7627C37.7065 32.4454 38.2432 32.2868 38.8265 32.2868C39.2698 32.2868 39.7365 32.3775 40.2498 32.5814C40.7632 32.7853 41.2998 33.0799 41.8832 33.4651L49.6065 38.7901C50.2132 39.1979 50.6332 39.6738 50.8898 40.2403C51.1232 40.8068 51.2632 41.3733 51.2632 42.0077Z" fill="#446127"/>
</svg>
