<svg width="29" height="29" viewBox="0 0 29 29" fill="none" xmlns="http://www.w3.org/2000/svg">
<path d="M26.0677 22.3611C26.0677 22.7811 25.9754 23.2128 25.7792 23.6328C25.5831 24.0528 25.3292 24.4495 24.9946 24.8228C24.4292 25.4528 23.8062 25.9078 23.1023 26.1995C22.41 26.4911 21.66 26.6428 20.8523 26.6428C19.6754 26.6428 18.4177 26.3628 17.0908 25.7911C15.7639 25.2195 14.4369 24.4495 13.1215 23.4811C11.7946 22.5011 10.5369 21.4161 9.33693 20.2145C8.14847 19.0011 7.07539 17.7295 6.1177 16.3995C5.17154 15.0695 4.41001 13.7395 3.85616 12.4211C3.30231 11.0911 3.02539 9.81948 3.02539 8.60615C3.02539 7.81281 3.16385 7.05448 3.44078 6.35448C3.7177 5.64281 4.15616 4.98948 4.7677 4.40615C5.50616 3.67115 6.31385 3.30948 7.1677 3.30948C7.49078 3.30948 7.81385 3.37948 8.10231 3.51948C8.40231 3.65948 8.6677 3.86948 8.87539 4.17281L11.5523 7.98781C11.76 8.27948 11.91 8.54781 12.0139 8.80448C12.1177 9.04948 12.1754 9.29448 12.1754 9.51615C12.1754 9.79615 12.0946 10.0761 11.9331 10.3445C11.7831 10.6128 11.5639 10.8928 11.2869 11.1728L10.41 12.0945C10.2831 12.2228 10.2254 12.3745 10.2254 12.5611C10.2254 12.6545 10.2369 12.7361 10.26 12.8295C10.2946 12.9228 10.3292 12.9928 10.3523 13.0628C10.56 13.4478 10.9177 13.9495 11.4254 14.5561C11.9446 15.1628 12.4985 15.7811 13.0985 16.3995C13.7215 17.0178 14.3215 17.5895 14.9331 18.1145C15.5331 18.6278 16.0292 18.9778 16.4215 19.1878C16.4792 19.2111 16.5485 19.2461 16.6292 19.2811C16.7215 19.3161 16.8139 19.3278 16.9177 19.3278C17.1139 19.3278 17.2639 19.2578 17.3908 19.1295L18.2677 18.2545C18.5562 17.9628 18.8331 17.7411 19.0985 17.6011C19.3639 17.4378 19.6292 17.3561 19.9177 17.3561C20.1369 17.3561 20.3677 17.4028 20.6215 17.5078C20.8754 17.6128 21.1408 17.7645 21.4292 17.9628L25.2485 20.7045C25.5485 20.9145 25.7562 21.1595 25.8831 21.4511C25.9985 21.7428 26.0677 22.0345 26.0677 22.3611Z" fill="#446127"/>
</svg>
