<svg width="31" height="31" viewBox="0 0 31 31" fill="none" xmlns="http://www.w3.org/2000/svg">
<path d="M15.1189 16.3595C11.1564 16.3595 7.9314 13.1345 7.9314 9.172C7.9314 5.2095 11.1564 1.9845 15.1189 1.9845C19.0814 1.9845 22.3064 5.2095 22.3064 9.172C22.3064 13.1345 19.0814 16.3595 15.1189 16.3595ZM15.1189 3.8595C12.1939 3.8595 9.8064 6.247 9.8064 9.172C9.8064 12.097 12.1939 14.4845 15.1189 14.4845C18.0439 14.4845 20.4314 12.097 20.4314 9.172C20.4314 6.247 18.0439 3.8595 15.1189 3.8595Z" fill="#446127"/>
<path d="M25.8566 28.8595C25.3441 28.8595 24.9191 28.4345 24.9191 27.922C24.9191 23.6095 20.5191 20.1095 15.1191 20.1095C9.71909 20.1095 5.31909 23.6095 5.31909 27.922C5.31909 28.4345 4.89409 28.8595 4.38159 28.8595C3.86909 28.8595 3.44409 28.4345 3.44409 27.922C3.44409 22.5845 8.68159 18.2345 15.1191 18.2345C21.5566 18.2345 26.7941 22.5845 26.7941 27.922C26.7941 28.4345 26.3691 28.8595 25.8566 28.8595Z" fill="#446127"/>
</svg>
