<svg width="29" height="30" viewBox="0 0 29 30" fill="none" xmlns="http://www.w3.org/2000/svg">
<path d="M26.4598 19.914C26.4598 24.3123 23.9281 26.9344 19.6815 26.9344H18.2931C17.6515 26.9344 17.1265 26.3906 17.1265 25.726V18.754C17.1265 18.4277 17.3831 18.1498 17.6981 18.1498L19.7515 18.1135C19.9148 18.1015 20.0548 17.9806 20.0898 17.8115L20.4981 15.5035C20.5331 15.286 20.3698 15.0806 20.1481 15.0806L17.6631 15.1169C17.3365 15.1169 17.0798 14.851 17.0681 14.5248L17.0215 11.5644C17.0215 11.371 17.1731 11.2019 17.3715 11.2019L20.1714 11.1535C20.3698 11.1535 20.5215 10.9965 20.5215 10.7911L20.4748 7.89102C20.4748 7.68561 20.3231 7.52854 20.1248 7.52854L16.9748 7.57688C15.0381 7.61313 13.4981 9.25645 13.5331 11.2623L13.5915 14.5852C13.6031 14.9235 13.3465 15.1894 13.0198 15.2015L11.6198 15.2256C11.4215 15.2256 11.2698 15.3827 11.2698 15.5881L11.3048 17.884C11.3048 18.0894 11.4565 18.2464 11.6548 18.2464L13.0548 18.2223C13.3815 18.2223 13.6381 18.4881 13.6498 18.8144L13.7548 25.7019C13.7664 26.3785 13.2414 26.9344 12.5881 26.9344H9.9048C5.65813 26.9344 3.12646 24.3123 3.12646 19.9019V9.78811C3.12646 5.38978 5.65813 2.7677 9.9048 2.7677H19.6815C23.9281 2.7677 26.4598 5.38978 26.4598 9.78811V19.914Z" fill="white"/>
</svg>
