<svg width="31" height="31" viewBox="0 0 31 31" fill="none" xmlns="http://www.w3.org/2000/svg">
<path d="M15.7689 0.662063C15.5878 0.507133 15.3572 0.421997 15.1189 0.421997C14.8805 0.421997 14.65 0.507133 14.4689 0.662063L0.118896 12.9621V27.4221C0.118896 28.2177 0.434967 28.9808 0.997576 29.5434C1.56019 30.106 2.32325 30.4221 3.1189 30.4221H11.1189C11.3841 30.4221 11.6385 30.3167 11.826 30.1292C12.0135 29.9416 12.1189 29.6873 12.1189 29.4221V23.4221C12.1189 22.6264 12.435 21.8633 12.9976 21.3007C13.5602 20.7381 14.3232 20.4221 15.1189 20.4221C15.9145 20.4221 16.6776 20.7381 17.2402 21.3007C17.8028 21.8633 18.1189 22.6264 18.1189 23.4221V29.4221C18.1189 29.6873 18.2243 29.9416 18.4118 30.1292C18.5993 30.3167 18.8537 30.4221 19.1189 30.4221H27.1189C27.9145 30.4221 28.6776 30.106 29.2402 29.5434C29.8028 28.9808 30.1189 28.2177 30.1189 27.4221V12.9621L15.7689 0.662063Z" fill="#446127"/>
</svg>
