<svg width="30" height="31" viewBox="0 0 30 31" fill="none" xmlns="http://www.w3.org/2000/svg">
<path d="M15 1.42206L15.65 0.662063C15.4689 0.507133 15.2384 0.421997 15 0.421997C14.7616 0.421997 14.5311 0.507133 14.35 0.662063L15 1.42206ZM1 13.4221L0.35 12.6621L0 12.9621V13.4221H1ZM11 29.4221V30.4221C11.2652 30.4221 11.5196 30.3167 11.7071 30.1292C11.8946 29.9416 12 29.6873 12 29.4221H11ZM19 29.4221H18C18 29.6873 18.1054 29.9416 18.2929 30.1292C18.4804 30.3167 18.7348 30.4221 19 30.4221V29.4221ZM29 13.4221H30V12.9621L29.65 12.6621L29 13.4221ZM3 30.4221H11V28.4221H3V30.4221ZM29.65 12.6621L15.65 0.662063L14.35 2.18206L28.35 14.1821L29.65 12.6621ZM14.35 0.662063L0.35 12.6621L1.65 14.1821L15.65 2.18206L14.35 0.662063ZM12 29.4221V23.4221H10V29.4221H12ZM18 23.4221V29.4221H20V23.4221H18ZM19 30.4221H27V28.4221H19V30.4221ZM30 27.4221V13.4221H28V27.4221H30ZM0 13.4221V27.4221H2V13.4221H0ZM15 20.4221C15.7956 20.4221 16.5587 20.7381 17.1213 21.3007C17.6839 21.8633 18 22.6264 18 23.4221H20C20 22.096 19.4732 20.8242 18.5355 19.8865C17.5979 18.9488 16.3261 18.4221 15 18.4221V20.4221ZM15 18.4221C13.6739 18.4221 12.4021 18.9488 11.4645 19.8865C10.5268 20.8242 10 22.096 10 23.4221H12C12 22.6264 12.3161 21.8633 12.8787 21.3007C13.4413 20.7381 14.2044 20.4221 15 20.4221V18.4221ZM27 30.4221C27.7956 30.4221 28.5587 30.106 29.1213 29.5434C29.6839 28.9808 30 28.2177 30 27.4221H28C28 27.6873 27.8946 27.9416 27.7071 28.1292C27.5196 28.3167 27.2652 28.4221 27 28.4221V30.4221ZM3 28.4221C2.73478 28.4221 2.48043 28.3167 2.29289 28.1292C2.10536 27.9416 2 27.6873 2 27.4221H0C0 28.2177 0.31607 28.9808 0.87868 29.5434C1.44129 30.106 2.20435 30.4221 3 30.4221V28.4221Z" fill="#446127"/>
</svg>
