<svg width="28" height="30" viewBox="0 0 28 30" fill="none" xmlns="http://www.w3.org/2000/svg">
<path d="M19.0067 2.7677H9.57922C5.48422 2.7677 3.04297 5.38978 3.04297 9.78812V19.9019C3.04297 24.3123 5.48422 26.9344 9.57922 26.9344H18.9955C23.0905 26.9344 25.5317 24.3123 25.5317 19.914V9.78812C25.543 5.38978 23.1017 2.7677 19.0067 2.7677ZM14.293 19.5394C11.8855 19.5394 9.92797 17.4369 9.92797 14.851C9.92797 12.2652 11.8855 10.1627 14.293 10.1627C16.7005 10.1627 18.658 12.2652 18.658 14.851C18.658 17.4369 16.7005 19.5394 14.293 19.5394ZM20.953 8.66437C20.8967 8.80937 20.818 8.94228 20.7167 9.06312C20.6042 9.17187 20.4805 9.25645 20.3455 9.31687C20.2105 9.37728 20.0642 9.41353 19.918 9.41353C19.6142 9.41353 19.333 9.2927 19.1192 9.06312C19.018 8.94228 18.9392 8.80937 18.883 8.66437C18.8267 8.51937 18.793 8.36228 18.793 8.2052C18.793 8.04812 18.8267 7.89103 18.883 7.74603C18.9392 7.58895 19.018 7.46812 19.1192 7.34728C19.378 7.06937 19.7717 6.93645 20.1317 7.02103C20.2105 7.03312 20.278 7.05728 20.3455 7.09353C20.413 7.1177 20.4805 7.15395 20.548 7.20228C20.6042 7.23853 20.6605 7.29895 20.7167 7.34728C20.818 7.46812 20.8967 7.58895 20.953 7.74603C21.0092 7.89103 21.043 8.04812 21.043 8.2052C21.043 8.36228 21.0092 8.51937 20.953 8.66437Z" fill="white"/>
</svg>
