<svg width="29" height="29" viewBox="0 0 29 29" fill="none" xmlns="http://www.w3.org/2000/svg">
<g clip-path="url(#clip0_1718_848)">
<path d="M24.5102 10.8345C23.2986 5.44446 18.6486 3.01779 14.564 3.01779C14.564 3.01779 14.564 3.01779 14.5525 3.01779C10.4794 3.01779 5.81785 5.43279 4.60631 10.8228C3.25631 16.8428 6.90246 21.9411 10.2025 25.1495C11.4255 26.3395 12.9948 26.9345 14.564 26.9345C16.1332 26.9345 17.7025 26.3395 18.914 25.1495C22.214 21.9411 25.8602 16.8545 24.5102 10.8345ZM14.564 16.6795C12.5563 16.6795 10.9294 15.0345 10.9294 13.0045C10.9294 10.9745 12.5563 9.32946 14.564 9.32946C16.5717 9.32946 18.1986 10.9745 18.1986 13.0045C18.1986 15.0345 16.5717 16.6795 14.564 16.6795Z" fill="#446127"/>
</g>
<defs>
<clipPath id="clip0_1718_848">
<rect width="27.6923" height="28" fill="white" transform="translate(0.717773 0.976135)"/>
</clipPath>
</defs>
</svg>
