<svg width="29" height="29" viewBox="0 0 29 29" fill="none" xmlns="http://www.w3.org/2000/svg">
<path d="M14.564 27.5178C7.72169 27.5178 2.16016 21.8945 2.16016 14.9761C2.16016 8.05781 7.72169 2.43448 14.564 2.43448C21.4063 2.43448 26.9678 8.05781 26.9678 14.9761C26.9678 21.8945 21.4063 27.5178 14.564 27.5178ZM14.564 4.18448C8.67939 4.18448 3.89093 9.02615 3.89093 14.9761C3.89093 20.9261 8.67939 25.7678 14.564 25.7678C20.4486 25.7678 25.2371 20.9261 25.2371 14.9761C25.2371 9.02615 20.4486 4.18448 14.564 4.18448Z" fill="#446127"/>
<path d="M11.1025 26.3511H9.94863C9.47555 26.3511 9.08324 25.9545 9.08324 25.4761C9.08324 24.9978 9.45247 24.6128 9.92555 24.6011C8.11401 18.3478 8.11401 11.6045 9.92555 5.35114C9.45247 5.33947 9.08324 4.95447 9.08324 4.47614C9.08324 3.9978 9.47555 3.60114 9.94863 3.60114H11.1025C11.3794 3.60114 11.6448 3.74114 11.8063 3.9628C11.9679 4.19614 12.014 4.4878 11.9217 4.75614C9.75247 11.3478 9.75247 18.6045 11.9217 25.2078C12.014 25.4761 11.9679 25.7678 11.8063 26.0011C11.6448 26.2111 11.3794 26.3511 11.1025 26.3511Z" fill="#446127"/>
<path d="M18.0253 26.3511C17.933 26.3511 17.8407 26.3395 17.7484 26.3045C17.2984 26.1528 17.0446 25.6511 17.2061 25.1961C19.3753 18.6045 19.3753 11.3478 17.2061 4.74447C17.0561 4.28947 17.2984 3.78781 17.7484 3.63614C18.2099 3.48447 18.6946 3.72947 18.8446 4.18447C21.1407 11.1378 21.1407 18.7911 18.8446 25.7328C18.7292 26.1178 18.383 26.3511 18.0253 26.3511Z" fill="#446127"/>
<path d="M14.564 21.0428C11.3447 21.0428 8.13704 20.5878 5.04473 19.6661C5.0332 20.1328 4.65243 20.5178 4.17935 20.5178C3.70627 20.5178 3.31396 20.1211 3.31396 19.6428V18.4761C3.31396 18.1961 3.45243 17.9278 3.67166 17.7645C3.90243 17.6011 4.19089 17.5545 4.45627 17.6478C10.9755 19.8411 18.164 19.8411 24.6832 17.6478C24.9486 17.5545 25.237 17.6011 25.4678 17.7645C25.6986 17.9278 25.8255 18.1961 25.8255 18.4761V19.6428C25.8255 20.1211 25.4332 20.5178 24.9601 20.5178C24.487 20.5178 24.1063 20.1445 24.0947 19.6661C20.9909 20.5878 17.7832 21.0428 14.564 21.0428Z" fill="#446127"/>
<path d="M24.9484 12.3511C24.8561 12.3511 24.7638 12.3395 24.6715 12.3045C18.1523 10.1111 10.9638 10.1111 4.4446 12.3045C3.98306 12.4561 3.49844 12.2111 3.34844 11.7561C3.20998 11.2895 3.45229 10.7995 3.90229 10.6478C10.7792 8.32614 18.3484 8.32614 25.2138 10.6478C25.6638 10.7995 25.9177 11.3011 25.7561 11.7561C25.6523 12.1178 25.3061 12.3511 24.9484 12.3511Z" fill="#446127"/>
</svg>
